<svg width="93" height="93" viewBox="0 0 93 93" fill="none" xmlns="http://www.w3.org/2000/svg">
<g id="001-javascript">
<path id="Vector" d="M91.2386 42.6369C91.1906 42.1594 91.0119 41.7043 90.7222 41.3217C90.4325 40.9391 90.0429 40.6437 89.5964 40.4679L82.3456 37.5707C81.4624 33.9943 80.0415 30.5727 78.1315 27.4227L81.2146 20.2494C81.4094 19.8073 81.4778 19.3199 81.4122 18.8412C81.3465 18.3626 81.1494 17.9115 80.8428 17.5382C80.0371 16.5621 79.154 15.617 78.2554 14.7029C77.3568 13.7888 76.3963 12.9212 75.4202 12.1156C75.0469 11.8089 74.5958 11.6118 74.1172 11.5462C73.6385 11.4805 73.151 11.5489 72.7089 11.7437L65.5356 14.8269C62.3857 12.9169 58.9641 11.496 55.3877 10.6128L52.4905 3.362C52.3147 2.91542 52.0193 2.5259 51.6367 2.2362C51.254 1.94649 50.799 1.7678 50.3215 1.71974C49.051 1.5958 47.7651 1.54932 46.4792 1.54932C45.1933 1.54932 43.9073 1.5958 42.6369 1.71974C42.1594 1.7678 41.7043 1.94649 41.3217 2.2362C40.9391 2.5259 40.6437 2.91542 40.4679 3.362L37.5707 10.6128C33.9943 11.496 30.5727 12.9169 27.4227 14.8269L20.2494 11.7437C19.8073 11.5489 19.3199 11.4805 18.8412 11.5462C18.3626 11.6118 17.9115 11.8089 17.5382 12.1156C16.5621 12.9212 15.617 13.8043 14.7029 14.7029C13.7888 15.6015 12.9212 16.5621 12.1156 17.5382C11.8089 17.9115 11.6118 18.3626 11.5462 18.8412C11.4805 19.3199 11.5489 19.8073 11.7437 20.2494L14.8269 27.4227C12.9169 30.5727 11.496 33.9943 10.6128 37.5707L3.362 40.4679C2.91542 40.6437 2.5259 40.9391 2.2362 41.3217C1.94649 41.7043 1.7678 42.1594 1.71974 42.6369C1.5958 43.9073 1.54932 45.1933 1.54932 46.4792C1.54932 47.7651 1.5958 49.051 1.71974 50.3215C1.7678 50.799 1.94649 51.254 2.2362 51.6367C2.5259 52.0193 2.91542 52.3147 3.362 52.4905L10.6128 55.3877C11.496 58.9641 12.9169 62.3857 14.8269 65.5356L11.7437 72.7089C11.5489 73.151 11.4805 73.6385 11.5462 74.1172C11.6118 74.5958 11.8089 75.0469 12.1156 75.4202C12.9212 76.3963 13.8043 77.3413 14.7029 78.2554C15.6015 79.1695 16.5621 80.0371 17.5382 80.8428C17.9115 81.1494 18.3626 81.3465 18.8412 81.4122C19.3199 81.4778 19.8073 81.4094 20.2494 81.2146L27.4227 78.1315C30.5727 80.0415 33.9943 81.4624 37.5707 82.3456L40.4679 89.5964C40.6437 90.0429 40.9391 90.4325 41.3217 90.7222C41.7043 91.0119 42.1594 91.1906 42.6369 91.2386C43.9073 91.3626 45.1933 91.409 46.4792 91.409C47.7651 91.409 49.051 91.3626 50.3215 91.2386C50.799 91.1906 51.254 91.0119 51.6367 90.7222C52.0193 90.4325 52.3147 90.0429 52.4905 89.5964L55.3877 82.3456C58.9641 81.4624 62.3857 80.0415 65.5356 78.1315L72.7089 81.2146C73.151 81.4094 73.6385 81.4778 74.1172 81.4122C74.5958 81.3465 75.0469 81.1494 75.4202 80.8428C76.3963 80.0371 77.3413 79.154 78.2554 78.2554C79.1695 77.3568 80.0371 76.3963 80.8428 75.4202C81.1494 75.0469 81.3465 74.5958 81.4122 74.1172C81.4778 73.6385 81.4094 73.151 81.2146 72.7089L78.1315 65.5356C80.0415 62.3857 81.4624 58.9641 82.3456 55.3877L89.5964 52.4905C90.0429 52.3147 90.4325 52.0193 90.7222 51.6367C91.0119 51.254 91.1906 50.799 91.2386 50.3215C91.3626 49.051 91.409 47.7651 91.409 46.4792C91.409 45.1933 91.3626 43.9073 91.2386 42.6369ZM46.4792 74.3667C40.9636 74.3667 35.5718 72.7311 30.9857 69.6668C26.3996 66.6025 22.8252 62.247 20.7145 57.1513C18.6038 52.0555 18.0515 46.4482 19.1275 41.0386C20.2036 35.629 22.8596 30.6599 26.7597 26.7597C30.6599 22.8596 35.629 20.2036 41.0386 19.1275C46.4482 18.0515 52.0555 18.6038 57.1513 20.7145C62.247 22.8252 66.6025 26.3996 69.6668 30.9857C72.7311 35.5718 74.3667 40.9636 74.3667 46.4792C74.3556 53.872 71.4139 60.9589 66.1864 66.1864C60.9589 71.4139 53.872 74.3556 46.4792 74.3667Z" fill="#CCD0DA"/>
<path id="Vector_2" d="M46.4791 69.7188C59.314 69.7188 69.7187 59.3141 69.7187 46.4792C69.7187 33.6443 59.314 23.2396 46.4791 23.2396C33.6442 23.2396 23.2395 33.6443 23.2395 46.4792C23.2395 59.3141 33.6442 69.7188 46.4791 69.7188Z" fill="#FAA116"/>
<path id="Vector_3" d="M46.479 15.493C40.3506 15.493 34.3597 17.3103 29.2641 20.7151C24.1684 24.1199 20.1969 28.9593 17.8516 34.6213C15.5063 40.2833 14.8927 46.5135 16.0883 52.5242C17.2839 58.535 20.2351 64.0562 24.5686 68.3896C28.902 72.7231 34.4232 75.6743 40.434 76.8699C46.4447 78.0655 52.6749 77.4519 58.3369 75.1066C63.9989 72.7613 68.8383 68.7898 72.2431 63.6941C75.6479 58.5985 77.4652 52.6076 77.4652 46.4792C77.457 38.2636 74.1897 30.387 68.3805 24.5777C62.5712 18.7685 54.6946 15.5012 46.479 15.493ZM46.479 74.3667C40.9634 74.3667 35.5717 72.7311 30.9856 69.6668C26.3995 66.6024 22.8251 62.247 20.7144 57.1512C18.6036 52.0555 18.0514 46.4482 19.1274 41.0386C20.2034 35.6289 22.8595 30.6598 26.7596 26.7597C30.6597 22.8596 35.6288 20.2035 41.0385 19.1275C46.4481 18.0515 52.0554 18.6037 57.1511 20.7145C62.2469 22.8252 66.6023 26.3996 69.6667 30.9857C72.731 35.5718 74.3665 40.9635 74.3665 46.4792C74.3555 53.872 71.4138 60.9589 66.1863 66.1864C60.9587 71.4139 53.8719 74.3556 46.479 74.3667Z" fill="#B9BFCC"/>
<path id="Vector_4" d="M52.6764 44.9299C52.4045 44.9296 52.1374 44.8578 51.9021 44.7217C51.6667 44.5855 51.4713 44.3898 51.3356 44.1543C51.1998 43.9187 51.1284 43.6515 51.1286 43.3796C51.1287 43.1077 51.2004 42.8407 51.3365 42.6053C51.4726 42.3699 51.6682 42.1744 51.9037 42.0386C52.1392 41.9027 52.4063 41.8312 52.6782 41.8313C52.9501 41.8313 53.2172 41.903 53.4527 42.0389C53.6881 42.1749 53.8837 42.3705 54.0196 42.6059C54.2315 42.9485 54.5685 43.195 54.9592 43.2933C55.3498 43.3916 55.7634 43.3338 56.1122 43.1323C56.4609 42.9309 56.7176 42.6014 56.8276 42.2139C56.9376 41.8264 56.8923 41.4113 56.7015 41.0566C56.2935 40.35 55.7068 39.7633 55.0002 39.3554C54.2936 38.9474 53.4921 38.7327 52.6762 38.7327C51.8603 38.7327 51.0588 38.9474 50.3522 39.3554C49.6457 39.7633 49.0589 40.3501 48.651 41.0567C48.2431 41.7633 48.0283 42.5648 48.0283 43.3807C48.0283 44.1965 48.2431 44.998 48.6511 45.7046C49.059 46.4112 49.6458 46.9979 50.3524 47.4058C51.059 47.8138 51.8605 48.0285 52.6764 48.0285C52.9483 48.0288 53.2153 48.1006 53.4506 48.2367C53.686 48.3729 53.8814 48.5686 54.0172 48.8041C54.1529 49.0397 54.2243 49.3069 54.2241 49.5788C54.224 49.8506 54.1523 50.1177 54.0162 50.3531C53.8801 50.5885 53.6845 50.784 53.449 50.9198C53.2135 51.0557 52.9464 51.1272 52.6745 51.1271C52.4026 51.127 52.1355 51.0554 51.9 50.9194C51.6646 50.7835 51.4691 50.5879 51.3331 50.3525C51.1212 50.0099 50.7842 49.7634 50.3935 49.6651C50.0029 49.5668 49.5893 49.6245 49.2406 49.826C48.8918 50.0275 48.6352 50.357 48.5252 50.7444C48.4151 51.1319 48.4604 51.5471 48.6513 51.9018C49.0592 52.6083 49.6459 53.1951 50.3525 53.603C51.0591 54.011 51.8606 54.2257 52.6765 54.2257C53.4924 54.2257 54.2939 54.0109 55.0005 53.603C55.707 53.195 56.2938 52.6083 56.7017 51.9017C57.1096 51.1951 57.3244 50.3936 57.3244 49.5777C57.3244 48.7618 57.1096 47.9603 56.7016 47.2538C56.2937 46.5472 55.7069 45.9605 55.0003 45.5525C54.2938 45.1446 53.4922 44.9299 52.6764 44.9299Z" fill="white"/>
<path id="Vector_5" d="M44.9299 38.7327H38.7326C38.3217 38.7327 37.9277 38.8959 37.6371 39.1864C37.3466 39.477 37.1833 39.8711 37.1833 40.282C37.1833 40.6929 37.3466 41.0869 37.6371 41.3775C37.9277 41.668 38.3217 41.8313 38.7326 41.8313H41.8313V49.5778C41.8313 49.9887 41.668 50.3828 41.3775 50.6733C41.0869 50.9639 40.6929 51.1271 40.2819 51.1271C39.871 51.1271 39.477 50.9639 39.1864 50.6733C38.8959 50.3828 38.7326 49.9887 38.7326 49.5778V48.0285C38.7326 47.6176 38.5694 47.2235 38.2789 46.933C37.9883 46.6424 37.5942 46.4792 37.1833 46.4792C36.7724 46.4792 36.3784 46.6424 36.0878 46.933C35.7973 47.2235 35.634 47.6176 35.634 48.0285V49.5778C35.634 50.8105 36.1237 51.9927 36.9954 52.8644C37.867 53.736 39.0492 54.2257 40.2819 54.2257C41.5147 54.2257 42.6969 53.736 43.5685 52.8644C44.4402 51.9927 44.9299 50.8105 44.9299 49.5778V41.8313C45.3408 41.8313 45.7348 41.668 46.0254 41.3775C46.3159 41.0869 46.4792 40.6929 46.4792 40.282C46.4792 39.8711 46.3159 39.477 46.0254 39.1864C45.7348 38.8959 45.3408 38.7327 44.9299 38.7327Z" fill="white"/>
<g id="Group">
<path id="Vector_6" d="M32.1698 54.2257C31.348 54.2257 30.5598 53.8993 29.9787 53.3182C29.3976 52.7371 29.0712 51.9489 29.0712 51.1271V50.3091C29.0715 50.0685 29.0152 49.8313 28.907 49.6165L28.3771 48.5584C28.0568 47.9123 27.8901 47.201 27.8901 46.48C27.8901 45.7589 28.0568 45.0476 28.3771 44.4016L28.907 43.3419C29.0152 43.1271 29.0715 42.8898 29.0712 42.6493V41.8313C29.0712 41.0095 29.3976 40.2213 29.9787 39.6402C30.5598 39.0591 31.348 38.7327 32.1698 38.7327C32.5807 38.7327 32.9748 38.8959 33.2653 39.1864C33.5559 39.477 33.7191 39.8711 33.7191 40.282C33.7191 40.6929 33.5559 41.0869 33.2653 41.3775C32.9748 41.668 32.5807 41.8313 32.1698 41.8313V42.6493C32.1687 43.3705 32.0006 44.0816 31.6787 44.7269L31.1488 45.7867C31.0426 46.0023 30.9874 46.2395 30.9874 46.48C30.9874 46.7204 31.0426 46.9576 31.1488 47.1733L31.6787 48.2315C32.0006 48.8768 32.1687 49.5879 32.1698 50.3091V51.1271C32.5807 51.1271 32.9748 51.2903 33.2653 51.5809C33.5559 51.8714 33.7191 52.2655 33.7191 52.6764C33.7191 53.0873 33.5559 53.4814 33.2653 53.7719C32.9748 54.0625 32.5807 54.2257 32.1698 54.2257Z" fill="#DD7800"/>
<path id="Vector_7" d="M60.7886 54.2257C60.3777 54.2257 59.9836 54.0625 59.693 53.7719C59.4025 53.4814 59.2393 53.0873 59.2393 52.6764C59.2393 52.2655 59.4025 51.8714 59.693 51.5809C59.9836 51.2903 60.3777 51.1271 60.7886 51.1271V50.3091C60.7897 49.5879 60.9578 48.8768 61.2797 48.2315L61.8096 47.1717C61.9158 46.956 61.971 46.7188 61.971 46.4784C61.971 46.238 61.9158 46.0008 61.8096 45.7851L61.2797 44.7269C60.9578 44.0816 60.7897 43.3705 60.7886 42.6493V41.8313C60.3777 41.8313 59.9836 41.668 59.693 41.3775C59.4025 41.0869 59.2393 40.6929 59.2393 40.282C59.2393 39.8711 59.4025 39.477 59.693 39.1864C59.9836 38.8959 60.3777 38.7327 60.7886 38.7327C61.6104 38.7327 62.3985 39.0591 62.9796 39.6402C63.5607 40.2213 63.8872 41.0095 63.8872 41.8313V42.6493C63.8869 42.8898 63.9431 43.1271 64.0514 43.3419L64.5813 44.4C64.9016 45.046 65.0682 45.7574 65.0682 46.4784C65.0682 47.1995 64.9016 47.9108 64.5813 48.5568L64.0514 49.6165C63.9431 49.8313 63.8869 50.0685 63.8872 50.3091V51.1271C63.8872 51.9489 63.5607 52.7371 62.9796 53.3182C62.3985 53.8993 61.6104 54.2257 60.7886 54.2257Z" fill="#DD7800"/>
</g>
</g>
</svg>
