<svg width="93" height="94" viewBox="0 0 93 94" fill="none" xmlns="http://www.w3.org/2000/svg">
<g id="004-ecommerce" clip-path="url(#clip0_48_52)">
<path id="Vector" d="M81.8833 0.299805V30.6202H65.543L49.2026 14.2799V0.299805H81.8833Z" fill="#FF6536"/>
<path id="Vector_2" d="M81.8833 0.299805V30.6202H65.543L54.6494 19.7266V0.299805H81.8833Z" fill="#F03800"/>
<path id="Vector_3" d="M32.8623 11.5565H65.543V30.6202H32.8623V11.5565Z" fill="#FDBF00"/>
<path id="Vector_4" d="M54.6494 11.5565H65.543V30.6202H54.6494V11.5565Z" fill="#FF9100"/>
<path id="Vector_5" d="M92.9583 71.4711V76.9178H22.241L16.7942 22.4501H0V17.0033H21.6963L22.7857 27.8969H92.9583L86.8938 66.0243H26.5984L27.1431 71.4711H92.9583Z" fill="#7ED8F6"/>
<path id="Vector_6" d="M27.4155 85.088C27.4155 89.593 31.0808 93.2582 35.5857 93.2582C40.0906 93.2582 43.7559 89.593 43.7559 85.088C43.7559 80.5831 40.0906 76.9178 35.5857 76.9178C31.0808 76.9178 27.4155 80.5831 27.4155 85.088Z" fill="#7ED8F6"/>
<g id="Group">
<path id="Vector_7" d="M81.8833 85.088C81.8833 89.6086 78.2344 93.2582 73.7131 93.2582C69.1919 93.2582 65.543 89.6086 65.543 85.088C65.543 80.5668 69.1919 76.9178 73.7131 76.9178C78.2344 76.9178 81.8833 80.5668 81.8833 85.088Z" fill="#6AA9FF"/>
<path id="Vector_8" d="M54.6494 71.4711H92.9584V76.9178H54.6494V71.4711Z" fill="#6AA9FF"/>
<path id="Vector_9" d="M86.8939 66.0243H54.6494V27.8969H92.9584L86.8939 66.0243Z" fill="#6AA9FF"/>
</g>
</g>
<defs>
<clipPath id="clip0_48_52">
<rect width="92.9583" height="92.9583" fill="white" transform="translate(0 0.299805)"/>
</clipPath>
</defs>
</svg>
