<svg width="93" height="93" viewBox="0 0 93 93" fill="none" xmlns="http://www.w3.org/2000/svg">
<g id="002-software-development" clip-path="url(#clip0_48_38)">
<g id="Group">
<path id="Vector" d="M40.6693 0L40.3733 2.36572C40.0719 4.77138 38.3435 6.75582 35.9996 7.3822C33.9781 7.98461 31.1218 7.1863 29.7104 5.22164L28.2706 3.32253L18.2086 9.13243L19.1382 11.3347C20.0786 13.5679 19.5757 16.1479 17.8618 17.8618C16.1994 19.4976 13.6647 20.0908 11.3347 19.1382L9.13243 18.2086L3.32253 28.2706L5.22164 29.7104C7.15343 31.1719 8.00858 33.6593 7.3822 35.9996C6.78342 38.1946 4.89447 40.0365 2.36572 40.3733L0 40.6693V52.2891L2.36572 52.585C4.77138 52.8864 6.75582 54.6148 7.3822 56.9588C7.98443 58.9802 7.1863 61.8365 5.22164 63.248L3.32253 64.6877L9.13243 74.7498L11.3347 73.8202C13.5679 72.8797 16.1479 73.3826 17.8618 75.0965C19.4976 76.7589 20.0908 79.2936 19.1382 81.6236L18.2086 83.8259L28.2706 89.6358L29.7104 87.7367C31.1719 85.8049 33.6593 84.9498 35.9996 85.5761C38.1946 86.1749 40.0365 88.0639 40.3733 90.5926L40.6693 92.9583H46.4792L50.537 46.4799L46.4792 0L40.6693 0Z" fill="#9BCFFF"/>
<path id="Vector_2" d="M52.2891 0L52.5851 2.36572C52.8865 4.77138 54.6149 6.75582 56.9588 7.3822C58.9803 7.98461 61.8366 7.1863 63.2481 5.22164L64.6878 3.32253L74.7498 9.13243L73.8203 11.3347C72.8798 13.5679 73.3827 16.1479 75.0966 17.8618C76.759 19.4976 79.2937 20.0908 81.6237 19.1382L83.826 18.2086L89.6359 28.2706L87.7368 29.7104C85.805 31.1719 84.9498 33.6593 85.5762 35.9996C86.175 38.1946 88.0639 40.0365 90.5927 40.3733L92.9584 40.6693V52.2891L90.5927 52.585C88.187 52.8864 86.2026 54.6148 85.5762 56.9588C84.974 58.9802 85.7721 61.8365 87.7368 63.248L89.6359 64.6877L83.826 74.7498L81.6237 73.8202C79.3905 72.8797 76.8105 73.3826 75.0966 75.0965C73.4608 76.7589 72.8676 79.2936 73.8203 81.6236L74.7498 83.8259L64.6878 89.6358L63.2481 87.7367C61.7865 85.8049 59.2991 84.9498 56.9588 85.5761C54.7638 86.1749 52.9219 88.0639 52.5851 90.5926L52.2891 92.9583H46.4792V0L52.2891 0Z" fill="#32A7FF"/>
<path id="Vector_3" d="M54.5948 46.4792L46.4791 77.6057C29.2872 77.6057 15.3525 63.671 15.3525 46.4792C15.3525 29.2873 29.2872 15.3527 46.4791 15.3527L54.5948 46.4792Z" fill="#524A8F"/>
<path id="Vector_4" d="M77.6058 46.4792C77.6058 63.671 63.6711 77.6057 46.4792 77.6057V15.3527C63.6711 15.3527 77.6058 29.2873 77.6058 46.4792Z" fill="#342C6E"/>
<path id="Vector_5" d="M35.0486 56.9186L24.6099 46.4792L35.0486 36.0408L38.9 39.8924L32.3127 46.4793L38.9002 53.0674L35.0486 56.9186Z" fill="#FFEB00"/>
<path id="Vector_6" d="M57.9097 56.9189L54.0583 53.0673L60.6456 46.4803L54.0581 39.8923L57.9097 36.041L68.3485 46.4805L57.9097 56.9189Z" fill="#FFBB00"/>
<path id="Vector_7" d="M46.4792 52.9227L43.2983 59.7439L38.3635 57.4417L46.4792 40.0356L49.1066 42.1889L46.4792 52.9227Z" fill="#FFEB00"/>
<path id="Vector_8" d="M54.5949 35.5166L46.4792 52.9227V40.0357L49.6602 33.2145L54.5949 35.5166Z" fill="#FFBB00"/>
</g>
</g>
<defs>
<clipPath id="clip0_48_38">
<rect width="92.9583" height="92.9583" fill="white"/>
</clipPath>
</defs>
</svg>
